<svg data-name="Layer 1" xmlns="http://www.w3.org/2000/svg" viewBox="0 0 238.79 238.78"><path d="M235.02 119.43A115.63 115.63 0 1 1 119.39 3.77a115.62 115.62 0 0 1 115.63 115.66z" fill="none" stroke="#ac2226" stroke-linecap="round" stroke-linejoin="round" stroke-width="7.54"/><path d="M133.33 106.64h25.18v18q0 11-1.93 17.29a26.13 26.13 0 0 1-7.17 11.29 36.85 36.85 0 0 1-13.21 7.88l-4.93-10.39q7.53-2.5 10.8-7t3.45-11.91h-12.19zm42 0h25.17v18q0 10.94-1.93 17.25a26.24 26.24 0 0 1-7.12 11.33 36.23 36.23 0 0 1-13.26 7.88l-4.92-10.39q7.52-2.5 10.79-7t3.45-11.91h-12.16zm-69.87 25.5H80.28v-18q0-11 1.93-17.29a26.13 26.13 0 0 1 7.17-11.29 36.85 36.85 0 0 1 13.21-7.88l4.93 10.39q-7.53 2.51-10.8 7c-2.18 3-3.33 7-3.44 11.91h12.18zm-42 0H38.27v-18q0-10.93 1.93-17.25a26.33 26.33 0 0 1 7.12-11.33 36.23 36.23 0 0 1 13.26-7.88l4.92 10.39q-7.51 2.51-10.79 7c-2.18 3-3.33 7-3.45 11.91h12.18z" fill="#ac2226"/></svg>