<?xml version="1.0" encoding="UTF-8"?>
<svg width="200px" height="41px" viewBox="0 0 200 41" version="1.1" xmlns="http://www.w3.org/2000/svg" xmlns:xlink="http://www.w3.org/1999/xlink">
    <title>logo/lean-library-navy</title>
    <g id="logo/lean-library-navy" stroke="none" stroke-width="1" fill="none" fill-rule="evenodd">
        <rect fill="#FFFFFF" x="0" y="0" width="200" height="41"></rect>
        <g id="lean-library-logo" transform="translate(3.000000, 0.000000)" fill-rule="nonzero">
            <path d="M20.5254498,41 C16.9721703,41 13.4796712,40.0786665 10.3891038,38.3263155 L12.0501981,35.4508434 C19.5396403,39.6959319 29.0156377,37.7551722 34.2307594,30.9080877 C39.4458811,24.0610033 38.7946619,14.4154561 32.7064442,8.33065928 C26.6182264,2.24586251 16.9672563,1.59500925 10.1163224,6.80720059 C3.26538846,12.0193919 1.32353759,21.4900647 5.57101274,28.9752987 L2.68015808,30.6308735 C-1.90066753,22.5768998 -0.507486166,12.453306 6.07881994,5.93439604 C12.665126,-0.584513969 22.8074787,-1.87841382 30.8210596,2.77793114 C38.8346404,7.43427609 42.727611,16.8834947 40.3179498,25.8292723 C37.9082886,34.7750498 29.794936,40.993843 20.5254498,41 Z" id="Path" fill="#243A59"></path>
            <path d="M28.0600265,27.2417605 C24.7361446,27.2392314 22.0422375,24.546838 22.039707,21.2248237 L22.039707,13.7586858 L25.3573068,13.7586858 L25.3573068,21.2248237 C25.3573068,22.7166559 26.5673557,23.9260248 28.0600265,23.9260248 L30.9233492,23.9260248 L30.9233492,27.2417605 L28.0600265,27.2417605 Z" id="Path" fill="#243A59"></path>
            <path d="M17.6804817,27.2417605 C14.3583919,27.236704 11.6672771,24.5450498 11.6647508,21.2248237 L11.6647508,13.7586858 L14.9823507,13.7586858 L14.9823507,21.2248237 C14.9823485,22.7148667 16.1896031,23.923495 17.6804817,23.9260248 L20.5483931,23.9260248 L20.5483931,27.2417605 L17.6804817,27.2417605 Z" id="Path" fill="#243A59"></path>
            <path d="M7.20916371,36.3359568 C5.86601336,36.3359568 4.77717487,35.2477301 4.77717487,33.9053345 C4.77717487,32.5629389 5.86601336,31.4747122 7.20916371,31.4747122 C8.55231406,31.4747122 9.64115255,32.5629389 9.64115255,33.9053345 C9.63862742,35.2466834 8.55126672,36.3334331 7.20916371,36.3359568 Z" id="Path" fill="#ED8573"></path>
            <path d="M52.889256,32.5753713 L48.9797192,32.5753713 L48.1812927,34.4098033 L47.3094476,34.4098033 L50.5215083,27.2280023 L51.3749988,27.2280023 L54.5870595,34.4098033 L53.6922711,34.4098033 L52.889256,32.5753713 Z M52.5634612,31.8140821 L50.9298989,28.1452182 L49.3192799,31.8140821 L52.5634612,31.8140821 Z" id="Shape" fill="#949290"></path>
            <path d="M61.3002664,27.9984637 C60.3825348,27.9984637 59.7676546,28.3699361 59.7676546,28.9844708 C59.7676546,30.8510053 63.8148511,29.8741703 63.8056894,32.4836497 C63.8056894,33.6714444 62.7456937,34.4419058 61.2084932,34.4419058 C60.1855488,34.4309502 59.2036111,34.0383959 58.4552983,33.3412467 L58.8269797,32.6349904 C59.4709837,33.255555 60.3234581,33.6136875 61.2176706,33.6393419 C62.2547073,33.6393419 62.9017081,33.2220086 62.9017081,32.5249245 C62.9017081,30.603357 58.8682776,31.6077085 58.8682776,29.0440899 C58.8682776,27.9159142 59.8640164,27.2096388 61.3507417,27.2096388 C62.1634453,27.2072201 62.9597645,27.4380229 63.6450707,27.8746395 L63.2963327,28.6038262 C62.7012501,28.2182915 62.0093697,28.0084596 61.3002664,27.9984637 Z" id="Path" fill="#949290"></path>
            <path d="M70.0508376,32.5753713 L66.1367121,32.5753713 L65.3382856,34.4098033 L64.4664406,34.4098033 L67.6785013,27.2280023 L68.5319917,27.2280023 L71.7440524,34.4098033 L70.8492641,34.4098033 L70.0508376,32.5753713 Z M69.7204542,31.8140821 L68.0868919,28.1452182 L66.4762728,31.8140821 L69.7204542,31.8140821 Z" id="Shape" fill="#949290"></path>
            <path d="M77.7597833,30.9014522 L78.48938,30.9014522 L78.48938,33.5063455 C77.7228719,34.0945858 76.7851672,34.41664 75.8187809,34.4235615 C74.4955399,34.4625013 73.2565364,33.7765304 72.5877541,32.6347123 C71.9189718,31.4928942 71.9270552,30.0773038 72.6088336,28.9431891 C73.290612,27.8090743 74.5373688,27.1372817 75.8600788,27.1913136 C76.8321229,27.1934539 77.771305,27.5432125 78.5077346,28.1773208 L78.0488688,28.7689251 C77.4493239,28.23653 76.6758492,27.9413396 75.8738448,27.9388446 C74.8210452,27.8967647 73.8296887,28.4341257 73.2907578,29.3389971 C72.7518268,30.2438685 72.7518268,31.3710066 73.2907578,32.275878 C73.8296887,33.1807494 74.8210452,33.7181104 75.8738448,33.6760305 C76.5495248,33.6623446 77.2065362,33.4519641 77.764372,33.070668 L77.7597833,30.9014522 Z" id="Path" fill="#949290"></path>
            <polygon id="Path" fill="#949290" points="85.133757 27.2280023 85.133757 27.9892915 81.0819719 27.9892915 81.0819719 30.4015695 84.7024232 30.4015695 84.7024232 31.1491005 81.0819719 31.1491005 81.0819719 33.6531001 85.2760054 33.6531001 85.2760054 34.4098033 80.260602 34.4098033 80.260602 27.2280023"></polygon>
            <path d="M95.9308697,29.6402802 C95.9308697,31.2178917 94.907599,32.1351077 93.1317883,32.1351077 L91.2412611,32.1351077 L91.2412611,34.4281476 L90.4244799,34.4281476 L90.4244799,27.2280023 L93.1226109,27.2280023 C94.9121876,27.2280023 95.9308697,28.1131157 95.9308697,29.6402802 Z M95.1416205,29.6402802 C95.1416205,28.5442072 94.3936693,27.9709472 93.0996676,27.9709472 L91.2642044,27.9709472 L91.2642044,31.3554741 L93.0996676,31.3554741 C94.3936693,31.3738184 95.1416205,30.7913863 95.1416205,29.6723828 L95.1416205,29.6402802 Z" id="Shape" fill="#949290"></path>
            <path d="M101.960367,29.0165734 L101.960367,34.4098033 L101.157351,34.4098033 L101.157351,33.189906 C100.813242,34.0038556 99.9878923,34.5076448 99.1062212,34.4419058 C97.8443402,34.4419058 97.082623,33.6393419 97.082623,32.3368952 L97.082623,29.0165734 L97.8856381,29.0165734 L97.8856381,32.1351077 C97.835165,32.5486072 97.9748594,32.9626962 98.2655413,33.2612351 C98.5562231,33.5597741 98.9665879,33.7106124 99.3815407,33.6714444 C100.501173,33.6714444 101.157351,32.8321918 101.157351,31.6627415 L101.157351,29.0165734 L101.960367,29.0165734 Z" id="Path" fill="#949290"></path>
            <path d="M109.23339,31.7223605 C109.23339,33.3229024 108.182587,34.4419058 106.654564,34.4419058 C105.782758,34.4770377 104.966468,34.0149109 104.54837,33.2495251 L104.54837,34.4098033 L103.749943,34.4098033 L103.749943,26.7969107 L104.54837,26.7969107 L104.54837,30.1722655 C104.95991,29.4100007 105.770297,28.9489624 106.636209,28.9844708 C108.164232,28.9844708 109.23339,30.1309908 109.23339,31.7223605 Z M108.421197,31.7223605 C108.371062,30.6663099 107.482251,29.8458997 106.42496,29.8797501 C105.367669,29.9136006 104.533218,30.789183 104.550814,31.8462755 C104.56841,32.9033679 105.43154,33.750725 106.489372,33.7494078 C107.023524,33.7544401 107.535578,33.5366197 107.902253,33.1483889 C108.268928,32.7601582 108.457003,32.2366905 108.421197,31.7040162 L108.421197,31.7223605 Z" id="Shape" fill="#949290"></path>
            <polygon id="Path" fill="#949290" points="111.52313 26.7969107 111.52313 34.4098033 110.724704 34.4098033 110.724704 26.7969107"></polygon>
            <path d="M114.313034,27.4664784 C114.300497,27.7518984 114.061036,27.9744057 113.7753,27.9661421 C113.489564,27.9578785 113.263378,27.7219044 113.267375,27.4362374 C113.271372,27.1505704 113.504072,26.9210098 113.789927,26.9207347 C113.932732,26.9205976 114.069385,26.9788159 114.168174,27.0818795 C114.266963,27.184943 114.319298,27.3238911 114.313034,27.4664784 Z M114.184552,29.0165734 L114.184552,34.4098033 L113.395303,34.4098033 L113.395303,29.0165734 L114.184552,29.0165734 Z" id="Shape" fill="#949290"></path>
            <path d="M117.557216,29.6723828 C116.951513,29.6723828 116.492647,29.8879286 116.492647,30.4015695 C116.492647,31.6214667 119.507396,30.9977599 119.507396,32.9376716 C119.507396,33.99247 118.566721,34.4648362 117.529684,34.4648362 C116.767297,34.4798234 116.027076,34.2081254 115.45561,33.703547 L115.76305,33.1211148 C116.259027,33.5583433 116.895904,33.8025322 117.557216,33.8090268 C118.195039,33.8090268 118.708969,33.5613785 118.718146,33.015635 C118.750267,31.7040162 115.721753,32.3735838 115.73093,30.4611885 C115.73093,29.4384927 116.625718,28.9981989 117.61228,28.9981989 C118.22079,28.9955932 118.817532,29.1657678 119.333027,29.4889396 L119.025586,30.1034743 C118.584812,29.8282145 118.076918,29.6791045 117.557216,29.6723828 L117.557216,29.6723828 Z" id="Path" fill="#949290"></path>
            <path d="M125.85351,31.0848954 L125.85351,34.4098033 L125.050495,34.4098033 L125.050495,31.291269 C125.090372,30.8744962 124.942592,30.4616055 124.647266,30.1646731 C124.35194,29.8677408 123.93971,29.7175732 123.522471,29.7549322 C122.370718,29.7549322 121.687008,30.5850127 121.687008,31.7636352 L121.687008,34.4098033 L120.883993,34.4098033 L120.883993,26.7969107 L121.687008,26.7969107 L121.687008,30.2272985 C122.055123,29.396009 122.915593,28.8948125 123.820734,28.9844708 C125.091793,28.9844708 125.85351,29.7732766 125.85351,31.0848954 Z" id="Path" fill="#949290"></path>
            <path d="M128.51952,27.4664784 C128.506983,27.7518984 128.267522,27.9744057 127.981786,27.9661421 C127.69605,27.9578785 127.469864,27.7219044 127.473861,27.4362374 C127.477858,27.1505704 127.710558,26.9210098 127.996413,26.9207347 C128.139218,26.9205976 128.275871,26.9788159 128.37466,27.0818795 C128.473448,27.184943 128.525784,27.3238911 128.51952,27.4664784 L128.51952,27.4664784 Z M128.409392,29.0165734 L128.409392,34.4098033 L127.615555,34.4098033 L127.615555,29.0165734 L128.409392,29.0165734 Z" id="Shape" fill="#949290"></path>
            <path d="M135.200607,31.0848954 L135.200607,34.4098033 L134.397591,34.4098033 L134.397591,31.291269 C134.437469,30.8744962 134.289688,30.4616055 133.994363,30.1646731 C133.699037,29.8677408 133.286807,29.7175732 132.869568,29.7549322 C132.390015,29.7362439 131.923492,29.9133501 131.577285,30.2455214 C131.231079,30.5776927 131.034987,31.03634 131.034105,31.5159869 L131.034105,34.4098033 L130.244856,34.4098033 L130.244856,29.0165734 L131.047871,29.0165734 L131.047871,30.2043681 C131.424401,29.4030969 132.257089,28.9176351 133.140299,28.9844708 C134.438889,28.9844708 135.200607,29.7732766 135.200607,31.0848954 Z" id="Path" fill="#949290"></path>
            <path d="M141.78992,29.0165734 L141.78992,33.8457155 C141.78992,35.427913 140.711585,36.4230923 139.068845,36.4230923 C138.262558,36.4154886 137.482138,36.1377313 136.852523,35.6342866 L137.224205,35.0518545 C137.732627,35.4955034 138.384732,35.7399051 139.059668,35.7397664 C139.575327,35.7867995 140.086091,35.6083018 140.460066,35.2503672 C140.834041,34.8924326 141.034562,34.3901527 141.009848,33.8732319 L141.009848,33.0523236 C140.620278,33.7817455 139.844667,34.2211307 139.01837,34.1804993 C137.559177,34.1804993 136.554261,33.1027705 136.554261,31.5756059 C136.554261,30.0484414 137.55,28.9982291 138.995427,28.9890569 C139.825842,28.9515121 140.603353,29.3963201 140.991493,30.1309908 L140.991493,29.0165734 L141.78992,29.0165734 Z M140.991493,31.5893642 C140.938948,30.5904632 140.095391,29.817777 139.095146,29.8523369 C138.0949,29.8868967 137.306748,30.7159607 137.32335,31.7161035 C137.339953,32.7162463 138.155188,33.5187243 139.15603,33.5201055 C139.65999,33.5207984 140.142067,33.3143649 140.489192,32.9492206 C140.836318,32.5840764 141.017952,32.0923471 140.991493,31.5893642 L140.991493,31.5893642 Z" id="Shape" fill="#949290"></path>
            <path d="M150.288115,27.9571889 C149.266787,27.9571889 148.323042,28.5017544 147.812378,29.3857528 C147.301715,30.2697512 147.301715,31.3588822 147.812378,32.2428806 C148.323042,33.126879 149.266787,33.6714445 150.288115,33.6714444 C151.079843,33.6625873 151.838877,33.3545569 152.412663,32.8092614 L152.917416,33.3550049 C152.197428,34.0399555 151.245325,34.4281165 150.251405,34.4419058 C148.92803,34.4837075 147.687373,33.8001768 147.016209,32.6594985 C146.345044,31.5188202 146.350434,30.102951 147.030264,28.96741 C147.710093,27.8318689 148.955918,27.1577933 150.278937,27.2096579 C151.2557,27.2156037 152.194411,27.5889122 152.908238,28.2552841 L152.412663,28.8514745 C151.849562,28.2859592 151.086359,27.9647045 150.288115,27.9571889 L150.288115,27.9571889 Z" id="Path" fill="#949290"></path>
            <path d="M159.176346,31.7040162 C159.189371,32.819783 158.526898,33.8329442 157.4992,34.2689804 C156.471501,34.7050165 155.282074,34.4775873 154.487992,33.6932105 C153.693909,32.9088337 153.45241,31.7228249 153.876602,30.6906579 C154.300793,29.6584909 155.306681,28.9845468 156.423151,28.9844708 C157.157921,28.9493503 157.873811,29.2234687 158.397009,29.7402719 C158.920207,30.2570751 159.202861,30.9692974 159.176346,31.7040162 L159.176346,31.7040162 Z M154.495914,31.7040162 C154.546022,32.7620087 155.43596,33.5842623 156.495218,33.5512634 C157.554476,33.5182645 158.391447,32.6422129 158.375529,31.5831552 C158.359611,30.5240976 157.496689,29.6735674 156.436917,29.6723828 C155.899871,29.657752 155.381848,29.8716239 155.011706,30.2607986 C154.641563,30.6499733 154.454088,31.1778744 154.495914,31.7131883 L154.495914,31.7040162 Z" id="Shape" fill="#949290"></path>
            <path d="M169.482472,31.0848954 L169.482472,34.4098033 L168.684045,34.4098033 L168.684045,31.291269 C168.728797,30.8770193 168.587055,30.4643142 168.297184,30.1648606 C168.007313,29.8654069 167.59929,29.7101723 167.183554,29.741174 C166.063921,29.7732766 165.416921,30.5850127 165.416921,31.7544631 L165.416921,34.4098033 L164.609317,34.4098033 L164.609317,31.291269 C164.664629,30.8746838 164.526411,30.4556768 164.23405,30.1536502 C163.941688,29.8516237 163.527246,29.6997007 163.108826,29.741174 C161.99837,29.7732766 161.333015,30.5850127 161.333015,31.7544631 L161.333015,34.4098033 L160.53,34.4098033 L160.53,29.0165734 L161.319249,29.0165734 L161.319249,30.2364706 C161.667251,29.4193777 162.498293,28.9154955 163.384145,28.9844708 C164.287841,28.9099832 165.110537,29.5062007 165.320559,30.3878113 C165.62957,29.4872883 166.50925,28.9099687 167.458874,28.9844708 C168.734521,28.9844708 169.482472,29.7732766 169.482472,31.0848954 Z" id="Path" fill="#949290"></path>
            <path d="M176.77385,31.7223605 C176.77385,33.3229024 175.727636,34.4419058 174.195024,34.4419058 C173.322694,34.4841749 172.504219,34.0197994 172.093418,33.2495251 L172.093418,36.4001619 L171.290403,36.4001619 L171.290403,29.0165734 L172.093418,29.0165734 L172.093418,30.1722655 C172.501763,29.409133 173.31157,28.9474103 174.176669,28.9844708 C175.704692,28.9844708 176.77385,30.1309908 176.77385,31.7223605 Z M175.961657,31.7223605 C175.911488,30.6657172 175.021741,29.8451025 173.963884,29.8798111 C172.906027,29.9145196 172.072048,30.7916901 172.091327,31.8493469 C172.110607,32.9070037 172.976001,33.7532322 174.034421,33.7494078 C174.568212,33.7545395 175.079881,33.5365824 175.445848,33.1481786 C175.811815,32.7597748 175.998806,32.2362384 175.961657,31.7040162 L175.961657,31.7223605 Z" id="Shape" fill="#949290"></path>
            <path d="M181.605707,34.4098033 L181.605707,33.5705507 C181.127729,34.168105 180.387118,34.4936537 179.623406,34.4419058 C178.508362,34.4419058 177.787943,33.7310635 177.787943,32.8092614 C177.787943,31.8874594 178.535894,31.2729247 179.811541,31.2591664 L181.587352,31.2591664 L181.587352,30.9243826 C181.587352,30.1309908 181.091777,29.6494524 180.137336,29.6494524 C179.514314,29.6708091 178.914505,29.8909905 178.425767,30.2777453 L178.086206,29.7136575 C178.721721,29.2347257 179.497438,28.9784475 180.293351,28.9844708 C181.62865,28.9844708 182.367424,29.6907271 182.376601,30.8189028 L182.376601,34.3868729 L181.605707,34.4098033 Z M181.605707,32.5753713 L181.605707,31.8966315 L179.921669,31.8966315 C179.003938,31.8966315 178.545072,32.1763824 178.545072,32.7771589 C178.545072,33.3779353 179.026881,33.7723382 179.788598,33.7723382 C180.603684,33.8427293 181.35716,33.334323 181.596529,32.5524409 L181.605707,32.5753713 Z" id="Shape" fill="#949290"></path>
            <path d="M189.098986,31.0848954 L189.098986,34.4098033 L188.300559,34.4098033 L188.300559,31.291269 C188.338959,30.8740372 188.190041,30.4612996 187.894045,30.1645842 C187.598049,29.8678688 187.185526,29.7178013 186.767947,29.7549322 C186.293886,29.7426086 185.834773,29.9212853 185.493885,30.2507685 C185.152998,30.5802517 184.958962,31.0328733 184.955427,31.5068147 L184.955427,34.4006311 L184.152412,34.4006311 L184.152412,29.0165734 L184.955427,29.0165734 L184.955427,30.2043681 C185.329913,29.4012313 186.164026,28.9149389 187.047855,28.9844708 C188.341857,28.9844708 189.098986,29.7732766 189.098986,31.0848954 Z" id="Path" fill="#949290"></path>
            <path d="M190.883974,36.4322645 C190.47001,36.443808 190.065831,36.3053569 189.745986,36.0424477 L190.085547,35.4049826 C190.303555,35.5700526 190.569173,35.6601511 190.842676,35.6618031 C191.304301,35.6389665 191.700546,35.3258327 191.829237,34.8821695 L192.054081,34.3685286 L189.819405,29.0165734 L190.659129,29.0165734 L192.453295,33.5063455 L194.169453,29.0165734 L194.990823,29.0165734 L192.508359,35.1756786 C192.191741,36.001173 191.604393,36.4322645 190.883974,36.4322645 Z" id="Path" fill="#949290"></path>
            <polygon id="Path" fill="#243A59" points="48.1996473 20.2113001 48.1996473 6.72822539 51.5172472 6.72822539 51.5172472 17.4275496 57.3494317 17.4275496 57.3494317 20.2113001"></polygon>
            <polygon id="Path" fill="#243A59" points="60.0246194 20.2113001 60.0246194 6.72822539 70.6060652 6.72822539 70.6060652 9.31936049 63.3422193 9.31936049 63.3422193 12.1673161 69.8994119 12.1673161 69.8994119 14.7355208 63.3422193 14.7584512 63.3422193 17.620165 70.8033775 17.620165 70.8033775 20.2113001"></polygon>
            <path d="M84.5005222,20.2113001 L83.5552586,17.7806778 L77.4202226,17.7806778 L76.4566044,20.2113001 L73.065586,20.2113001 L78.851884,6.74198363 L82.3576188,6.74198363 L88.0292004,20.2113001 L84.5005222,20.2113001 Z M78.3930182,15.3041947 L82.6054064,15.3041947 L80.5221556,9.88344831 L78.3930182,15.3041947 Z" id="Shape" fill="#243A59"></path>
            <polygon id="Path" fill="#243A59" points="99.7440447 20.2113001 93.2923913 11.6949498 93.2923913 20.2113001 90.208813 20.2113001 90.208813 6.72822539 93.1639089 6.72822539 99.6155623 15.2858504 99.6155623 6.72822539 102.680786 6.72822539 102.680786 20.2113001"></polygon>
            <polygon id="Path" fill="#243A59" points="113.863346 6.59064299 113.863346 18.8950952 119.90202 18.8950952 119.90202 20.3488825 112.289436 20.3488825 112.289436 6.59064299"></polygon>
            <polygon id="Path" fill="#243A59" points="124.2796 6.59064299 124.2796 20.3488825 122.70569 20.3488825 122.70569 6.59064299"></polygon>
            <path d="M138.793526,10.0302029 C138.858014,11.5649752 137.756932,12.9025227 136.237643,13.1349789 C138.224532,13.4330741 139.385463,14.7309347 139.385463,16.6158135 C139.385463,18.9547142 137.55,20.3488825 134.411357,20.3488825 L128.528698,20.3488825 L128.528698,6.59064299 L134.33335,6.59064299 C137.127843,6.59064299 138.793526,7.87015927 138.793526,10.0302029 Z M137.182907,10.268679 C137.182907,8.85158035 136.099984,8.0444303 134.255343,8.0444303 L130.102607,8.0444303 L130.102607,12.5479607 L134.255343,12.5479607 C136.099984,12.5479607 137.182907,11.7224663 137.182907,10.268679 L137.182907,10.268679 Z M137.793198,16.4186121 C137.793198,14.8868614 136.494608,13.9834037 134.255343,14.001748 L130.102607,14.001748 L130.102607,18.8950952 L134.255343,18.8950952 C136.494608,18.9134395 137.793198,18.0099818 137.793198,16.4186121 L137.793198,16.4186121 Z" id="Shape" fill="#243A59"></path>
            <path d="M151.650946,20.3488825 L148.760091,15.9462459 C148.484772,15.9691763 148.186509,15.9875206 147.87448,15.9875206 L144.203554,15.9875206 L144.203554,20.3488825 L142.634233,20.3488825 L142.634233,6.59064299 L147.865303,6.59064299 C151.306797,6.59064299 153.293686,8.28290645 153.293686,11.2088254 C153.293686,13.4697627 152.169464,15.0244438 150.182575,15.6527367 L153.431345,20.3488825 L151.650946,20.3488825 Z M147.87448,14.5383193 C150.37071,14.5383193 151.788606,13.4147298 151.788606,11.2546862 C151.788606,9.09464258 150.37071,8.0444303 147.87448,8.0444303 L144.203554,8.0444303 L144.203554,14.5383193 L147.87448,14.5383193 Z" id="Shape" fill="#243A59"></path>
            <path d="M180.105216,20.3488825 L177.214361,15.9462459 C176.939041,15.9691763 176.645367,15.9875206 176.32875,15.9875206 L172.657823,15.9875206 L172.657823,20.3488825 L171.083914,20.3488825 L171.083914,6.59064299 L176.314984,6.59064299 C179.756478,6.59064299 181.743366,8.28290645 181.743366,11.2088254 C181.743366,13.4697627 180.623734,15.0244438 178.636845,15.6527367 L181.881026,20.3488825 L180.105216,20.3488825 Z M176.32875,14.5383193 C178.82498,14.5383193 180.242875,13.4147298 180.242875,11.2546862 C180.242875,9.09464258 178.82498,8.0444303 176.32875,8.0444303 L172.657823,8.0444303 L172.657823,14.5383193 L176.32875,14.5383193 Z" id="Shape" fill="#243A59"></path>
            <polygon id="Path" fill="#243A59" points="189.759752 15.5747734 189.759752 20.3488825 188.208786 20.3488825 188.208786 15.611462 182.876765 6.59064299 184.510327 6.59064299 188.97968 13.8045466 193.384792 6.59064299 195 6.59064299"></polygon>
            <path d="M162.952811,6.59064299 L161.319249,6.59064299 L155.147504,20.3488825 L156.817775,20.3488825 L158.726657,15.9875206 L165.471985,15.9875206 L167.399221,20.3488825 L169.106202,20.3488825 L162.952811,6.59064299 Z M159.364481,14.5383193 L162.090143,8.31042293 L164.843338,14.5383193 L159.364481,14.5383193 Z" id="Shape" fill="#243A59"></path>
        </g>
    </g>
</svg>