<svg id="Layer_1" data-name="Layer 1" xmlns="http://www.w3.org/2000/svg" viewBox="0 0 238.79 238.78"><defs><style>.cls-1{fill:#ac2226}</style><clipPath id="clip-path" transform="translate(-1.1 -2.09)"><circle class="cls-1" cx="158.5" cy="176.5" r="21"/></clipPath><clipPath id="clip-path-2" transform="translate(-1.1 -2.09)"><circle class="cls-1" cx="68.5" cy="125.5" r="21"/></clipPath><clipPath id="clip-path-3" transform="translate(-1.1 -2.09)"><circle class="cls-1" cx="158.5" cy="74.5" r="21"/></clipPath></defs><path d="M235.02 119.39A115.62 115.62 0 1 1 119.39 3.77a115.62 115.62 0 0 1 115.63 115.62z" stroke-linecap="round" stroke-linejoin="round" stroke-width="7.54" fill="none" stroke="#ac2226"/><circle class="cls-1" cx="157.4" cy="174.41" r="21"/><g clip-path="url(#clip-path)"><path class="cls-1" d="M132.4 148.41h52v52h-52z"/></g><circle class="cls-1" cx="67.4" cy="123.41" r="21"/><g clip-path="url(#clip-path-2)"><path class="cls-1" d="M41.4 97.41h52v52h-52z"/></g><circle class="cls-1" cx="157.4" cy="72.41" r="21"/><g clip-path="url(#clip-path-3)"><path class="cls-1" d="M131.4 46.41h52v52h-52z"/></g><path d="M66.9 123.91l91-53m-88.26 51.27l89.51 55.46" fill="none" stroke="#ac2226" stroke-linecap="square" stroke-miterlimit="10" stroke-width="15"/></svg>